<?xml version="1.0" encoding="utf-8"?>
<!DOCTYPE svg PUBLIC "-//W3C//DTD SVG 1.1//EN" "http://www.w3.org/Graphics/SVG/1.1/DTD/svg11.dtd">
<svg version="1.1" xmlns="http://www.w3.org/2000/svg" xmlns:xlink="http://www.w3.org/1999/xlink" x="0px" y="0px" viewBox="0 0 1000 1000" enable-background="new 0 0 1000 1000" xml:space="preserve">
<g><path d="M500,867.5C132.5,867.5,10,500,10,500s122.5-367.5,490-367.5S990,500,990,500S867.5,867.5,500,867.5z M500,255c-134.7,0-245,110.3-245,245c0,134.7,110.3,245,245,245c134.8,0,245-110.3,245-245C745,365.3,634.8,255,500,255z M500,622.5c-67.4,0-122.5-55.1-122.5-122.5v-6.1c12.2,6.1,18.4,6.1,30.6,6.1c49,0,91.9-42.9,91.9-91.9c0-12.3,0-18.4-6.1-30.6h6.1c67.4,0,122.5,55.1,122.5,122.5C622.5,567.4,567.4,622.5,500,622.5z" fill="#dbdbdb"/></g>
</svg>
